<?xml version="1.0" encoding="UTF-8"?>
<!DOCTYPE svg PUBLIC "-//W3C//DTD SVG 1.1//EN" "http://www.w3.org/Graphics/SVG/1.1/DTD/svg11.dtd">
<!-- Creator: CorelDRAW 2018 (64 Bit Versão de avaliação) -->
<svg xmlns="http://www.w3.org/2000/svg" xml:space="preserve" width="8.4666mm" height="8.4666mm" version="1.1" style="shape-rendering:geometricPrecision; text-rendering:geometricPrecision; image-rendering:optimizeQuality; fill-rule:evenodd; clip-rule:evenodd"
viewBox="0 0 846.66 846.66"
 xmlns:xlink="http://www.w3.org/1999/xlink">
 <defs>
  <style type="text/css">
   <![CDATA[
    .str0 {stroke:#CCCCCC;stroke-width:8.46;stroke-miterlimit:22.9256}
    .fil6 {fill:none}
    .fil5 {fill:#EDB854;fill-rule:nonzero}
    .fil4 {fill:#10236E;fill-rule:nonzero}
    .fil3 {fill:#339E4A;fill-rule:nonzero}
    .fil2 {fill:#339E4A;fill-rule:nonzero}
    .fil0 {fill:#95A5A6;fill-rule:nonzero}
    .fil1 {fill:white;fill-rule:nonzero}
   ]]>
  </style>
 </defs>
 <g id="Camada_x0020_1">
  <metadata id="CorelCorpID_0Corel-Layer"/>
  <path class="fil0" d="M236.17 392.99l-15.42 0 0 -98.19c-3.71,3.57 -8.59,7.1 -14.61,10.63 -6.01,3.54 -11.45,6.19 -16.24,7.95l0 -14.9c8.62,-4.03 16.16,-8.93 22.61,-14.72 6.45,-5.75 11.04,-11.33 13.73,-16.76l9.93 0 0 125.99z"/>
  <path class="fil1" d="M384.93 599.54l25.89 -3.53c2.99,14.71 7.99,25.3 15.1,31.77 7.11,6.47 15.84,9.71 26.18,9.71 12.26,0 22.6,-4.22 30.94,-12.65 8.33,-8.44 12.5,-18.88 12.5,-31.33 0,-11.87 -3.87,-21.67 -11.67,-29.42 -7.75,-7.69 -17.6,-11.57 -29.61,-11.57 -4.9,0 -10.98,0.98 -18.29,2.9l2.89 -22.65c1.72,0.19 3.14,0.29 4.17,0.29 11.08,0 20.98,-2.89 29.86,-8.63 8.82,-5.74 13.24,-14.56 13.24,-26.47 0,-9.47 -3.24,-17.31 -9.66,-23.54 -6.42,-6.22 -14.71,-9.31 -24.86,-9.31 -10.1,0 -18.48,3.19 -25.2,9.56 -6.72,6.37 -11.03,15.93 -12.94,28.68l-25.89 -4.71c3.19,-17.35 10.35,-30.84 21.57,-40.4 11.18,-9.56 25.15,-14.31 41.82,-14.31 11.48,0 22.07,2.45 31.72,7.4 9.71,4.9 17.11,11.62 22.21,20.1 5.15,8.53 7.7,17.55 7.7,27.11 0,9.07 -2.45,17.31 -7.3,24.76 -4.91,7.46 -12.16,13.39 -21.72,17.8 12.45,2.84 22.11,8.82 29.02,17.89 6.86,9.03 10.3,20.4 10.3,33.98 0,18.39 -6.72,34.02 -20.11,46.82 -13.43,12.8 -30.39,19.17 -50.88,19.17 -18.49,0 -33.83,-5.54 -46.04,-16.57 -12.26,-11.03 -19.22,-25.3 -20.94,-42.85z"/>
  <path class="fil2" d="M560.19 364.36l0 -50.3 -91.48 0 0 -23.83 96.19 -136.49 21.18 0 0 136.49 28.53 0 0 23.83 -28.53 0 0 50.3 -25.89 0zm0 -74.13l0 -94.77 -66.04 94.77 66.04 0z"/>
  <path class="fil3" d="M330.19 462.31l-25.6 2.06c-2.3,-10.15 -5.59,-17.55 -9.85,-22.16 -7.01,-7.4 -15.69,-11.08 -25.98,-11.08 -8.29,0 -15.64,2.3 -21.97,6.91 -8.14,5.93 -14.51,14.56 -19.27,25.94 -4.7,11.42 -7.15,27.65 -7.35,48.68 6.23,-9.46 13.87,-16.52 22.9,-21.08 9.02,-4.61 18.43,-6.91 28.33,-6.91 17.26,0 31.97,6.37 44.13,19.07 12.11,12.69 18.19,29.07 18.19,49.22 0,13.24 -2.85,25.49 -8.53,36.87 -5.74,11.37 -13.54,20.05 -23.54,26.08 -9.95,6.03 -21.28,9.07 -33.92,9.07 -21.53,0 -39.13,-7.94 -52.76,-23.78 -13.58,-15.83 -20.39,-41.96 -20.39,-78.34 0,-40.69 7.55,-70.31 22.6,-88.79 13.14,-16.08 30.84,-24.12 53.14,-24.12 16.58,0 30.2,4.66 40.79,13.92 10.59,9.27 16.97,22.06 19.08,38.44zm-105.9 90.89c0,8.93 1.91,17.46 5.69,25.6 3.77,8.14 9.07,14.31 15.78,18.58 6.77,4.26 13.93,6.42 21.52,6.42 11.04,0 20.45,-4.41 28.24,-13.24 7.8,-8.82 11.72,-20.78 11.72,-35.93 0,-14.56 -3.87,-26.04 -11.57,-34.42 -7.7,-8.38 -17.5,-12.6 -29.41,-12.6 -11.67,0 -21.63,4.22 -29.76,12.6 -8.14,8.38 -12.21,19.37 -12.21,32.99z"/>
  <path class="fil4" d="M558.97 406l0 -24.71 136.19 0 0 20c-13.38,14.27 -26.72,33.24 -39.86,56.92 -13.19,23.68 -23.33,48.05 -30.54,73.1 -5.15,17.6 -8.48,36.97 -9.9,57.95l-26.48 0c0.3,-16.57 3.53,-36.62 9.76,-60.11 6.22,-23.53 15.1,-46.18 26.72,-68 11.62,-21.81 23.97,-40.2 37.06,-55.15l-102.95 0z"/>
  <path class="fil4" d="M366.03 180.29c0.95,-8.13 3.53,-14.63 7.77,-19.44 4.2,-4.84 9.85,-8.06 16.92,-9.79 10.73,-2.55 20.63,-0.87 29.75,5.07 9.15,5.94 15.21,15.31 18.26,28.08 3.09,12.85 1.84,24.05 -3.74,33.65 -5.6,9.61 -13.7,15.71 -24.43,18.25 -6.79,1.66 -13.16,1.26 -19.06,-1.1 -5.92,-2.37 -11.09,-6.86 -15.59,-13.49 -0.76,9.72 -3.89,17.74 -9.29,24.02 -5.42,6.26 -12.7,10.49 -21.77,12.68 -12.59,3.02 -24.19,1.1 -34.89,-5.76 -10.67,-6.81 -17.76,-17.52 -21.24,-32.01 -3.48,-14.5 -1.96,-27.21 4.47,-38.15 6.46,-10.96 16.11,-17.97 28.95,-21.06 9.57,-2.3 18.17,-1.78 25.75,1.53 7.62,3.28 13.67,9.13 18.14,17.52zm29.74 -10.91c-6.96,1.65 -12.12,5.27 -15.44,10.78 -3.35,5.55 -4.17,11.88 -2.45,19.06 1.66,6.93 5.24,12.12 10.68,15.51 5.43,3.4 11.32,4.32 17.69,2.81 6.61,-1.58 11.63,-5.2 15.06,-10.85 3.38,-5.69 4.27,-11.92 2.66,-18.75 -1.66,-6.85 -5.24,-12.05 -10.75,-15.55 -5.48,-3.48 -11.32,-4.48 -17.45,-3.01zm-69.28 10.43c-5.14,1.22 -9.84,3.64 -14.05,7.26 -4.25,3.57 -7.12,8.09 -8.6,13.55 -1.49,5.44 -1.58,10.93 -0.24,16.49 2.08,8.61 6.55,15.08 13.43,19.37 6.93,4.27 14.64,5.4 23.19,3.34 8.69,-2.08 15.18,-6.68 19.48,-13.82 4.29,-7.17 5.42,-15.07 3.34,-23.75 -2.04,-8.51 -6.55,-14.86 -13.51,-19.09 -6.92,-4.24 -14.64,-5.35 -23.04,-3.35z"/>
  <path class="fil5" d="M515.09 528.23l0 34.24 -193.2 0c-0.27,-8.63 1.15,-16.91 4.21,-24.93 4.96,-13.11 12.91,-26.09 23.85,-38.79 10.93,-12.7 26.56,-27.38 46.87,-44.02 31.59,-26.02 53.05,-46.6 64.26,-61.82 11.28,-15.21 16.92,-29.62 16.92,-43.2 0,-14.2 -5.1,-26.16 -15.29,-35.94 -10.19,-9.71 -23.5,-14.6 -39.87,-14.6 -17.33,0 -31.18,5.16 -41.58,15.49 -10.39,10.25 -15.62,24.52 -15.76,42.79l-36.68 -3.67c2.51,-27.44 12.02,-48.36 28.46,-62.76 16.51,-14.41 38.59,-21.61 66.37,-21.61 27.99,0 50.2,7.75 66.51,23.3 16.37,15.56 24.52,34.85 24.52,57.81 0,11.69 -2.38,23.17 -7.2,34.44 -4.76,11.35 -12.7,23.24 -23.78,35.74 -11.14,12.43 -29.55,29.61 -55.23,51.35 -21.53,18.07 -35.39,30.3 -41.5,36.75 -6.12,6.46 -11.14,12.91 -15.15,19.43l143.27 0z"/>
  <circle class="fil6 str0" cx="423.33" cy="423.33" r="338.66"/>
  <path class="fil0" d="M384.54 616.47l7.81 16.21c-7.31,4.47 -11.95,9.39 -13.94,14.78 -2,5.38 -1.8,11.22 0.62,17.53 2.06,5.38 5.1,9.62 9.15,12.75 4.01,3.15 8.56,5.2 13.67,6.17 5.08,0.97 11.46,0.98 19.11,0.05 7.65,-0.94 15.09,-2.82 22.32,-5.61 0.76,-0.3 1.94,-0.79 3.46,-1.46 -6.88,-1.35 -13.25,-4.38 -19,-9.1 -5.8,-4.7 -10.04,-10.61 -12.74,-17.66 -4.53,-11.78 -4.09,-23.4 1.29,-34.86 5.38,-11.42 15.04,-19.85 28.99,-25.24 14.41,-5.57 27.6,-5.79 39.67,-0.64 12.02,5.12 20.52,14.08 25.45,26.94 3.55,9.23 4.32,18.66 2.29,28.3 -2.02,9.59 -6.85,18.13 -14.54,25.68 -7.66,7.54 -20.22,14.67 -37.64,21.4 -18.13,7.01 -33.33,10.63 -45.58,10.83 -12.3,0.21 -22.73,-2.55 -31.35,-8.19 -8.61,-5.63 -14.92,-13.69 -18.95,-24.18 -4.29,-11.16 -4.71,-21.45 -1.25,-30.91 3.48,-9.43 10.54,-17.04 21.16,-22.79zm90.09 47.36c9.99,-3.85 16.89,-9.58 20.7,-17.16 3.83,-7.53 4.3,-15.12 1.39,-22.69 -3.01,-7.84 -8.75,-13.4 -17.26,-16.67 -8.52,-3.31 -17.81,-3 -27.86,0.88 -9.02,3.48 -15.31,9.04 -18.85,16.63 -3.56,7.62 -3.76,15.48 -0.67,23.56 3.12,8.11 8.47,13.66 16.13,16.69 7.62,3.05 16.44,2.62 26.42,-1.24z"/>
 </g>
</svg>
