<?xml version="1.0" encoding="UTF-8"?>
<!DOCTYPE svg PUBLIC "-//W3C//DTD SVG 1.1//EN" "http://www.w3.org/Graphics/SVG/1.1/DTD/svg11.dtd">
<!-- Creator: CorelDRAW 2018 (64 Bit Versão de avaliação) -->
<svg xmlns="http://www.w3.org/2000/svg" xml:space="preserve" width="8.4666mm" height="8.4666mm" version="1.1" style="shape-rendering:geometricPrecision; text-rendering:geometricPrecision; image-rendering:optimizeQuality; fill-rule:evenodd; clip-rule:evenodd"
viewBox="0 0 846.66 846.66"
 xmlns:xlink="http://www.w3.org/1999/xlink">
 <defs>
  <style type="text/css">
   <![CDATA[
    .fil1 {fill:#0070AE}
    .fil0 {fill:#F5812A}
   ]]>
  </style>
 </defs>
 <g id="Camada_x0020_1">
  <metadata id="CorelCorpID_0Corel-Layer"/>
  <g id="_2453285700752">
   <path class="fil0" d="M390.92 646.2c0.94,-3.43 6.85,-10.1 9.25,-13.01l19.38 -24.75c9.51,-11.61 123.33,-158.52 126.91,-160.85l-1.25 -0.5c-5.12,-1.17 -281.22,-0.37 -282.96,-0.37l-45.62 58.53c-2.89,3.57 -4.86,6.29 -7.71,9.94l-38.47 48.92c-32.22,41.24 -68.36,86.01 -99.74,127.1 -5.93,7.76 -52.91,66.25 -53.84,69.73l284.21 0c0.68,-2.53 13.55,-18.57 16.17,-21.79l67.57 -86.01c2.03,-2.55 3.68,-5.05 6.1,-6.94z"/>
   <path class="fil1" d="M564.24 399.94c-1.16,-4.62 -23.35,-41.78 -27.36,-48.69l-55.96 -96.71c-4.37,-7.79 -26.29,-44.5 -27.62,-48.78l-26.17 -44.84c-3.11,-5.18 -5.66,-10.08 -8.7,-15.13l-34.38 -60.07 -265.67 0c7.47,11.15 25.93,44.91 34.05,58.63 14.83,25.08 30.26,53.62 45.22,78.34l33.87 58.81c3.91,6.46 7.78,13.06 11.31,19.58 1.8,3.33 3.64,5.96 5.57,9.44l17.08 29.7c1.96,3.61 3.73,6.26 5.55,9.45 2,3.5 3.54,6.5 5.72,10.18l20.1 34.61c1.32,2.15 1.85,2.83 2.47,5.48l264.92 0z"/>
   <path class="fil0" d="M453.3 205.76c1.33,4.28 23.25,40.99 27.62,48.78l55.96 96.71c4.01,6.91 26.2,44.07 27.36,48.69l20.17 0c1.11,-4.13 140.02,-177.18 153.08,-193.8l92.3 -116.89 -284.21 0 -10.97 14.63c-4.05,5.2 -7.66,9.66 -11.78,14.7 -7.97,9.73 -15.23,19.25 -23.04,29.04 -7.76,9.75 -15.47,19.29 -23.06,29.01l-23.43 29.13z"/>
   <path class="fil1" d="M390.92 646.2c3.02,3.71 5.85,9.3 8.52,13.74l42.48 70.49c3.1,5.15 5.57,9.23 8.61,14.35 3.09,5.22 5.72,9.06 8.55,14.4l274.5 0c-0.84,-3.6 -20.42,-35.09 -22.78,-39l-164.34 -272.59c-3.58,2.33 -117.4,149.24 -126.91,160.85l-19.38 24.75c-2.4,2.91 -8.31,9.58 -9.25,13.01z"/>
  </g>
 </g>
</svg>
