<?xml version="1.0" encoding="UTF-8"?>
<!DOCTYPE svg PUBLIC "-//W3C//DTD SVG 1.1//EN" "http://www.w3.org/Graphics/SVG/1.1/DTD/svg11.dtd">
<!-- Creator: CorelDRAW 2018 (64 Bit Versão de avaliação) -->
<svg xmlns="http://www.w3.org/2000/svg" xml:space="preserve" width="8.4666mm" height="8.4666mm" version="1.1" style="shape-rendering:geometricPrecision; text-rendering:geometricPrecision; image-rendering:optimizeQuality; fill-rule:evenodd; clip-rule:evenodd"
viewBox="0 0 846.66 846.66"
 xmlns:xlink="http://www.w3.org/1999/xlink">
 <defs>
  <style type="text/css">
   <![CDATA[
    .fil1 {fill:#19308A}
    .fil0 {fill:#F0C34E}
   ]]>
  </style>
 </defs>
 <g id="Camada_x0020_1">
  <metadata id="CorelCorpID_0Corel-Layer"/>
  <g id="_1902627139936">
   <path class="fil0" d="M429.91 439.79l0 177.73c0,53.29 34.4,121.78 85.58,121.78 54.14,0 92.78,-35.3 100.45,-80.84 3.2,-18.98 -4.59,-32.08 -5.01,-50.82 13.64,6.55 26.49,6.59 42.79,6.59 39.32,0 85.58,-47.67 85.58,-85.58 0,-34.41 -5.02,-55.33 -38.74,-76.46 -17.78,-11.14 -48.41,-22.28 -76.46,-22.28l-184.31 0c-7.59,0 -9.88,2.29 -9.88,9.88z"/>
   <path class="fil1" d="M107.36 515.49c0,53.5 35.23,92.77 80.84,100.45 18.98,3.2 32.08,-4.59 50.82,-5.01 -21.08,43.93 4.74,128.37 95.44,128.37 49.66,0 82.29,-63.59 82.29,-115.2l0 -194.19 -187.61 0c-53.29,0 -121.78,34.4 -121.78,85.58z"/>
   <path class="fil1" d="M429.91 219.27l0 197.48 187.61 0c53.95,0 121.78,-34.09 121.78,-85.58 0,-29.96 -4.09,-44.41 -23.94,-68.22 -37.13,-44.56 -76.68,-27.92 -107.72,-27.22 6.55,-13.64 6.59,-26.49 6.59,-42.79 0,-26.8 -14.82,-42.82 -28.77,-56.81 -16.05,-16.09 -35.09,-26.01 -54.31,-28.77l-21.61 0c-20.7,3.05 -40.36,15.09 -55.34,37.46 -11.33,16.93 -24.29,48.17 -24.29,74.45z"/>
   <path class="fil0" d="M232.43 189.65c0,35.66 1.42,23.49 3.3,46.08 -15.35,0 -18.92,-3.3 -42.79,-3.3 -38.52,0 -80.68,41.76 -85.58,86.49l0 16.9c2.33,20.51 13.51,40.62 37.46,56.64 17.46,11.67 47.16,24.29 74.45,24.29l197.48 0 0 -187.61c0,-53.95 -34.09,-121.78 -85.58,-121.78 -58.21,0 -98.74,44.02 -98.74,82.29z"/>
  </g>
 </g>
</svg>
