<?xml version="1.0" encoding="UTF-8"?>
<!DOCTYPE svg PUBLIC "-//W3C//DTD SVG 1.1//EN" "http://www.w3.org/Graphics/SVG/1.1/DTD/svg11.dtd">
<!-- Creator: CorelDRAW 2018 (64 Bit Versão de avaliação) -->
<svg xmlns="http://www.w3.org/2000/svg" xml:space="preserve" width="38.0998mm" height="8.4666mm" version="1.1" style="shape-rendering:geometricPrecision; text-rendering:geometricPrecision; image-rendering:optimizeQuality; fill-rule:evenodd; clip-rule:evenodd"
viewBox="0 0 3809.98 846.66"
 xmlns:xlink="http://www.w3.org/1999/xlink">
 <defs>
  <style type="text/css">
   <![CDATA[
    .fil1 {fill:#E6E6E6}
    .fil0 {fill:#E8C31E}
    .fil2 {fill:#FCDE85}
    .fil3 {fill:white;fill-rule:nonzero}
   ]]>
  </style>
 </defs>
 <g id="Camada_x0020_1">
  <metadata id="CorelCorpID_0Corel-Layer"/>
  <rect class="fil0" x="-0.01" width="3809.99" height="846.66"/>
  <g id="_1866762557040">
   <path class="fil1" d="M460.94 440.97l0 190.5c0,57.12 36.87,130.53 91.72,130.53 58.04,0 99.45,-37.84 107.67,-86.64 3.43,-20.35 -4.92,-34.39 -5.37,-54.48 14.62,7.02 28.39,7.06 45.86,7.06 42.15,0 91.73,-51.09 91.73,-91.72 0,-36.89 -5.38,-59.31 -41.52,-81.95 -19.06,-11.94 -51.89,-23.88 -81.96,-23.88l-197.55 0c-8.13,0 -10.58,2.45 -10.58,10.58z"/>
   <path class="fil1" d="M249.27 172.86c0,38.23 1.51,25.18 3.53,49.39 -16.45,0 -20.28,-3.53 -45.86,-3.53 -41.29,0 -86.47,44.75 -91.73,92.69l0 18.12c2.5,21.98 14.48,43.54 40.15,60.71 18.72,12.51 50.55,26.03 79.8,26.03l211.66 0 0 -201.08c0,-57.82 -36.53,-130.53 -91.72,-130.53 -62.39,0 -105.83,47.18 -105.83,88.2z"/>
  </g>
  <g id="_1866762556432">
   <path class="fil2" d="M115.21 522.11c0,57.34 37.76,99.43 86.64,107.67 20.35,3.43 34.39,-4.92 54.48,-5.37 -22.6,47.09 5.08,137.59 102.3,137.59 53.23,0 88.19,-68.16 88.19,-123.48l0 -208.13 -201.08 0c-57.12,0 -130.53,36.87 -130.53,91.72z"/>
   <path class="fil2" d="M460.76 204.79l0 211.66 201.08 0c57.82,0 130.53,-36.53 130.53,-91.72 0,-32.12 -4.38,-47.6 -25.65,-73.12 -39.81,-47.77 -82.2,-29.92 -115.47,-29.18 7.02,-14.62 7.06,-28.39 7.06,-45.86 0,-28.73 -15.88,-45.9 -30.83,-60.89 -17.21,-17.25 -37.61,-27.89 -58.22,-30.84l-23.16 0c-22.18,3.27 -43.25,16.17 -59.31,40.15 -12.15,18.15 -26.03,51.64 -26.03,79.8z"/>
  </g>
  <path class="fil3" d="M1008.97 213.78l81.4 0c52.48,0 87.77,2.38 105.77,7.23 18.01,4.85 31.28,12.79 39.72,23.81 8.45,11.03 13.24,23.28 14.19,36.78 0.95,13.58 -0.63,40.13 -4.83,79.81l-15.52 146.59c-3.97,37.57 -8.39,62.7 -13.26,75.31 -4.87,12.7 -12.1,22.67 -21.58,29.81 -9.58,7.15 -20.95,12.09 -34.23,15 -13.17,2.82 -32.81,4.23 -58.83,4.23l-137.14 0 44.31 -418.57zm101.44 71.43l-29.19 275.7c15.44,0 25.3,-3.17 29.49,-9.43 4.29,-6.35 7.86,-23.46 10.82,-51.42l17.24 -162.81c2.01,-18.96 2.67,-31.13 2.1,-36.51 -0.67,-5.38 -2.9,-9.26 -6.96,-11.73 -3.96,-2.56 -11.77,-3.8 -23.5,-3.8z"/>
  <polygon id="1" class="fil3" points="1410.42,213.78 1366.11,632.35 1257.11,632.35 1301.42,213.78 "/>
  <path id="2" class="fil3" d="M1641.67 213.78l17.96 418.57 -111.22 0 2.06 -75.14 -39.25 0 -13.87 75.14 -112.63 0 99.53 -418.57 157.42 0zm-86.27 269.34c-0.19,-47.44 0.56,-106.18 2.16,-176.3 -19.28,80.44 -32.28,139.17 -39.12,176.3l36.96 0z"/>
  <path id="3" class="fil3" d="M1815.95 213.78l81.4 0c52.48,0 87.77,2.38 105.77,7.23 18.01,4.85 31.28,12.79 39.72,23.81 8.45,11.03 13.24,23.28 14.19,36.78 0.95,13.58 -0.63,40.13 -4.83,79.81l-15.52 146.59c-3.97,37.57 -8.39,62.7 -13.26,75.31 -4.87,12.7 -12.1,22.67 -21.58,29.81 -9.58,7.15 -20.95,12.09 -34.23,15 -13.17,2.82 -32.81,4.23 -58.83,4.23l-137.14 0 44.31 -418.57zm101.44 71.43l-29.19 275.7c15.44,0 25.3,-3.17 29.49,-9.43 4.29,-6.35 7.86,-23.46 10.82,-51.42l17.24 -162.81c2.01,-18.96 2.67,-31.13 2.1,-36.51 -0.67,-5.38 -2.9,-9.26 -6.96,-11.73 -3.96,-2.56 -11.77,-3.8 -23.5,-3.8z"/>
  <polygon id="4" class="fil3" points="2108.4,213.78 2289.9,213.78 2281.05,297.39 2208.55,297.39 2200.09,377.29 2267.83,377.29 2259.43,456.67 2191.69,456.67 2181.94,548.74 2261.85,548.74 2253,632.35 2064.09,632.35 "/>
  <path id="5" class="fil3" d="M2638.31 340.78l-101.07 0 3.28 -30.96c1.53,-14.46 1.19,-23.72 -0.95,-27.69 -2.13,-3.97 -6.16,-5.91 -12.16,-5.91 -6.52,0 -11.74,2.64 -15.66,8.02 -3.91,5.3 -6.44,13.32 -7.59,24.17 -1.47,13.93 -0.65,24.43 2.4,31.49 2.97,6.96 12.29,15.52 28.07,25.57 45.2,28.84 73.11,52.57 83.69,71 10.65,18.43 13.77,48.15 9.44,89.08 -3.16,29.81 -9.01,51.77 -17.48,65.97 -8.46,14.11 -23.12,25.93 -44.15,35.45 -20.95,9.61 -44.65,14.38 -71.19,14.38 -29.11,0 -53.3,-5.56 -72.78,-16.58 -19.38,-11.03 -31.29,-25.05 -35.93,-42.07 -4.54,-17.11 -5.14,-41.37 -1.83,-72.68l2.9 -27.43 101.07 0 -5.38 50.89c-1.66,15.7 -1.32,25.76 1.03,30.25 2.34,4.5 7.13,6.71 14.36,6.71 7.23,0 12.91,-2.83 17.05,-8.56 4.13,-5.64 6.78,-14.11 7.96,-25.22 2.61,-24.61 0.96,-40.75 -4.94,-48.24 -6.17,-7.59 -21.76,-20.29 -46.86,-38.1 -25.09,-17.91 -41.52,-30.96 -49.48,-39.07 -7.88,-8.12 -14.01,-19.32 -18.24,-33.61 -4.22,-14.28 -5.19,-32.54 -2.84,-54.77 3.39,-32.01 9.93,-55.47 19.7,-70.29 9.77,-14.81 24.13,-26.37 43.28,-34.75 19.15,-8.38 41.54,-12.52 67.38,-12.52 28.22,0 51.73,4.59 70.7,13.67 18.87,9.17 30.8,20.64 35.76,34.57 4.97,13.85 5.74,37.4 2.22,70.65l-1.76 16.58z"/>
  <path id="6" class="fil3" d="M2917.46 459.14c-4.46,42.06 -8.57,71.79 -12.45,89.25 -3.8,17.55 -11.67,33.51 -23.6,47.98 -11.94,14.46 -27.23,25.57 -45.78,33.33 -18.55,7.77 -39.59,11.65 -63.14,11.65 -22.4,0 -42.03,-3.71 -59.07,-11.03 -17.04,-7.32 -30.26,-18.25 -39.47,-32.9 -9.3,-14.64 -14.05,-30.6 -14.34,-47.8 -0.2,-17.28 1.93,-47.45 6.49,-90.48l7.58 -71.62c4.45,-42.07 8.57,-71.79 12.44,-89.25 3.8,-17.55 11.66,-33.52 23.6,-47.98 11.94,-14.46 27.23,-25.58 45.78,-33.34 18.54,-7.76 39.59,-11.64 63.14,-11.64 22.4,0 42.03,3.7 59.08,11.02 17.03,7.32 30.25,18.26 39.47,32.9 9.29,14.64 14.04,30.6 14.34,47.8 0.2,17.29 -1.94,47.45 -6.49,90.49l-7.58 71.62zm-94.46 -137.5c2.05,-19.4 2.31,-31.84 0.77,-37.31 -1.54,-5.38 -5.58,-8.11 -12.1,-8.11 -5.56,0 -10.02,2.2 -13.49,6.61 -3.37,4.32 -6.24,17.29 -8.52,38.81l-20.68 195.35c-2.56,24.25 -3.18,39.25 -1.84,44.89 1.33,5.73 5.53,8.56 12.58,8.56 7.24,0 12.26,-3.27 14.98,-9.79 2.72,-6.53 5.34,-22.14 7.95,-46.75l20.35 -192.26z"/>
  <path id="7" class="fil3" d="M2984.35 213.78l76.99 0c51.33,0 85.87,1.94 103.62,5.91 17.74,3.96 31.49,14.11 41.23,30.42 9.74,16.23 12.73,42.25 8.96,77.88 -3.45,32.54 -9.82,54.42 -19.13,65.62 -9.2,11.2 -25.87,17.9 -49.93,20.1 20.96,5.38 34.75,12.53 41.21,21.52 6.46,8.91 10.18,17.2 11.14,24.7 1.06,7.5 -0.24,28.13 -3.81,61.91l-11.7 110.51 -101.08 0 14.74 -139.26c2.37,-22.4 2.08,-36.25 -0.88,-41.63 -2.87,-5.38 -11.76,-8.02 -26.67,-8.02l-20 188.91 -109 0 44.31 -418.57zm101.44 71.43l-9.86 93.14c12.18,0 20.82,-1.68 26.02,-5.03 5.2,-3.35 8.83,-14.29 10.78,-32.72l2.44 -23.02c1.41,-13.32 -0.05,-22.05 -4.28,-26.19 -4.24,-4.15 -12.66,-6.18 -25.1,-6.18z"/>
  <polygon id="8" class="fil3" points="3488.38,213.78 3479.53,297.39 3415.5,297.39 3380.04,632.35 3271.03,632.35 3306.49,297.39 3241.94,297.39 3250.79,213.78 "/>
  <polygon id="9" class="fil3" points="3513.26,213.78 3694.76,213.78 3685.91,297.39 3613.41,297.39 3604.95,377.29 3672.69,377.29 3664.29,456.67 3596.55,456.67 3586.8,548.74 3666.71,548.74 3657.86,632.35 3468.95,632.35 "/>
 </g>
</svg>
