<?xml version="1.0" encoding="UTF-8"?>
<!DOCTYPE svg PUBLIC "-//W3C//DTD SVG 1.1//EN" "http://www.w3.org/Graphics/SVG/1.1/DTD/svg11.dtd">
<!-- Creator: CorelDRAW 2018 (64 Bit Versão de avaliação) -->
<svg xmlns="http://www.w3.org/2000/svg" xml:space="preserve" width="38.0998mm" height="8.4666mm" version="1.1" style="shape-rendering:geometricPrecision; text-rendering:geometricPrecision; image-rendering:optimizeQuality; fill-rule:evenodd; clip-rule:evenodd"
viewBox="0 0 3809.98 846.66"
 xmlns:xlink="http://www.w3.org/1999/xlink">
 <defs>
  <style type="text/css">
   <![CDATA[
    .fil0 {fill:#A70B1F}
    .fil1 {fill:#E6E6E6}
    .fil2 {fill:#F02B46}
    .fil3 {fill:white;fill-rule:nonzero}
   ]]>
  </style>
 </defs>
 <g id="Camada_x0020_1">
  <metadata id="CorelCorpID_0Corel-Layer"/>
  <rect class="fil0" x="-0.01" width="3809.99" height="846.66"/>
  <g id="_1866650539840">
   <path class="fil1" d="M563.2 440.97l0 190.5c0,57.12 36.87,130.53 91.72,130.53 58.04,0 99.45,-37.84 107.67,-86.64 3.43,-20.35 -4.92,-34.39 -5.37,-54.48 14.62,7.02 28.39,7.06 45.86,7.06 42.15,0 91.73,-51.09 91.73,-91.72 0,-36.89 -5.38,-59.31 -41.52,-81.95 -19.06,-11.94 -51.89,-23.88 -81.96,-23.88l-197.55 0c-8.13,0 -10.58,2.45 -10.58,10.58z"/>
   <path class="fil1" d="M351.53 172.86c0,38.23 1.51,25.18 3.53,49.39 -16.45,0 -20.28,-3.53 -45.86,-3.53 -41.29,0 -86.47,44.75 -91.73,92.69l0 18.12c2.5,21.98 14.48,43.54 40.15,60.71 18.72,12.51 50.55,26.03 79.8,26.03l211.66 0 0 -201.08c0,-57.82 -36.53,-130.53 -91.72,-130.53 -62.39,0 -105.83,47.18 -105.83,88.2z"/>
  </g>
  <g id="_1866650532992">
   <path class="fil2" d="M217.47 522.11c0,57.34 37.76,99.43 86.64,107.67 20.35,3.43 34.39,-4.92 54.48,-5.37 -22.6,47.09 5.08,137.59 102.3,137.59 53.23,0 88.19,-68.16 88.19,-123.48l0 -208.13 -201.08 0c-57.12,0 -130.53,36.87 -130.53,91.72z"/>
   <path class="fil2" d="M563.02 204.79l0 211.66 201.08 0c57.82,0 130.53,-36.53 130.53,-91.72 0,-32.12 -4.38,-47.6 -25.65,-73.12 -39.81,-47.77 -82.2,-29.92 -115.47,-29.18 7.02,-14.62 7.06,-28.39 7.06,-45.86 0,-28.73 -15.88,-45.9 -30.83,-60.89 -17.21,-17.25 -37.61,-27.89 -58.22,-30.84l-23.16 0c-22.18,3.27 -43.25,16.17 -59.31,40.15 -12.15,18.15 -26.03,51.64 -26.03,79.8z"/>
  </g>
  <path class="fil3" d="M1182.71 213.78l81.4 0c52.48,0 87.77,2.38 105.77,7.23 18.01,4.85 31.28,12.79 39.72,23.81 8.45,11.03 13.24,23.28 14.19,36.78 0.95,13.58 -0.63,40.13 -4.83,79.81l-15.52 146.59c-3.97,37.57 -8.39,62.7 -13.26,75.31 -4.87,12.7 -12.1,22.67 -21.58,29.81 -9.58,7.15 -20.95,12.09 -34.23,15 -13.17,2.82 -32.81,4.23 -58.83,4.23l-137.14 0 44.31 -418.57zm101.44 71.43l-29.19 275.7c15.44,0 25.3,-3.17 29.49,-9.43 4.29,-6.35 7.86,-23.46 10.82,-51.42l17.24 -162.81c2.01,-18.96 2.67,-31.13 2.1,-36.51 -0.67,-5.38 -2.9,-9.26 -6.96,-11.73 -3.96,-2.56 -11.77,-3.8 -23.5,-3.8z"/>
  <path id="1" class="fil3" d="M1722.28 213.78l-29.62 279.84c-3.36,31.75 -6.79,54.06 -10.17,66.85 -3.48,12.88 -10.96,26.11 -22.53,39.6 -11.59,13.58 -26.07,23.81 -43.39,30.78 -17.41,6.97 -37.36,10.5 -59.94,10.5 -24.96,0 -46.57,-4.15 -64.74,-12.44 -18.26,-8.29 -31.41,-19.05 -39.45,-32.28 -8.11,-13.32 -12.18,-27.34 -12.38,-42.07 -0.13,-14.73 2.28,-45.77 7.28,-92.96l26.23 -247.82 109.01 0 -33.24 313.97c-1.93,18.26 -2.2,29.99 -0.79,35.01 1.4,5.12 5.09,7.68 11,7.68 6.7,0 11.41,-2.83 13.94,-8.38 2.54,-5.65 4.91,-18.88 7.11,-39.69l32.67 -308.59 109.01 0z"/>
  <path id="2" class="fil3" d="M1764.53 213.78l109.62 0c29.64,0 52.15,2.29 67.61,6.96 15.39,4.68 26.67,11.38 33.77,20.11 7.09,8.82 11.34,19.49 12.93,31.93 1.51,12.52 0.87,31.84 -1.9,58.03l-3.86 36.43c-2.82,26.63 -7.62,46.12 -14.46,58.29 -6.76,12.26 -17.9,21.7 -33.23,28.23 -15.42,6.52 -35,9.78 -58.72,9.78l-29.2 0 -17.87 168.81 -109 0 44.31 -418.57zm101.44 71.43l-11.29 106.63c3.07,0.18 5.71,0.27 7.91,0.27 9.97,0 17.11,-2.47 21.52,-7.41 4.3,-4.85 7.32,-15.08 8.97,-30.61l3.65 -34.48c1.51,-14.29 0.3,-23.64 -3.75,-27.96 -3.95,-4.32 -12.98,-6.44 -27.01,-6.44z"/>
  <polygon id="3" class="fil3" points="2139.17,213.78 2103.71,548.74 2169.33,548.74 2160.48,632.35 1985.86,632.35 2030.17,213.78 "/>
  <path id="4" class="fil3" d="M2432.42 213.78l17.96 418.57 -111.22 0 2.06 -75.14 -39.25 0 -13.87 75.14 -112.63 0 99.53 -418.57 157.42 0zm-86.27 269.34c-0.19,-47.44 0.56,-106.18 2.16,-176.3 -19.28,80.44 -32.28,139.17 -39.12,176.3l36.96 0z"/>
  <path id="5" class="fil3" d="M2823.43 340.78l-101.07 0 3.28 -30.96c1.53,-14.46 1.19,-23.72 -0.95,-27.69 -2.13,-3.97 -6.16,-5.91 -12.16,-5.91 -6.52,0 -11.74,2.64 -15.66,8.02 -3.91,5.3 -6.44,13.32 -7.59,24.17 -1.47,13.93 -0.65,24.43 2.4,31.49 2.97,6.96 12.29,15.52 28.07,25.57 45.2,28.84 73.11,52.57 83.69,71 10.65,18.43 13.77,48.15 9.44,89.08 -3.16,29.81 -9.01,51.77 -17.48,65.97 -8.46,14.11 -23.12,25.93 -44.15,35.45 -20.95,9.61 -44.65,14.38 -71.19,14.38 -29.11,0 -53.3,-5.56 -72.78,-16.58 -19.38,-11.03 -31.29,-25.05 -35.93,-42.07 -4.54,-17.11 -5.14,-41.37 -1.83,-72.68l2.9 -27.43 101.07 0 -5.38 50.89c-1.66,15.7 -1.32,25.76 1.03,30.25 2.34,4.5 7.13,6.71 14.36,6.71 7.23,0 12.91,-2.83 17.05,-8.56 4.13,-5.64 6.78,-14.11 7.96,-25.22 2.61,-24.61 0.96,-40.75 -4.94,-48.24 -6.17,-7.59 -21.76,-20.29 -46.86,-38.1 -25.09,-17.91 -41.52,-30.96 -49.48,-39.07 -7.88,-8.12 -14.01,-19.32 -18.24,-33.61 -4.22,-14.28 -5.19,-32.54 -2.84,-54.77 3.39,-32.01 9.93,-55.47 19.7,-70.29 9.77,-14.81 24.13,-26.37 43.28,-34.75 19.15,-8.38 41.54,-12.52 67.38,-12.52 28.22,0 51.73,4.59 70.7,13.67 18.87,9.17 30.8,20.64 35.76,34.57 4.97,13.85 5.74,37.4 2.22,70.65l-1.76 16.58z"/>
  <polygon id="6" class="fil3" points="2880.37,213.78 3061.87,213.78 3053.02,297.39 2980.52,297.39 2972.06,377.29 3039.8,377.29 3031.4,456.67 2963.66,456.67 2953.91,548.74 3033.82,548.74 3024.97,632.35 2836.06,632.35 "/>
  <polygon id="7" class="fil3" points="3343.13,213.78 3298.82,632.35 3203.56,632.35 3167.09,442.03 3146.94,632.35 3055.93,632.35 3100.24,213.78 3191.25,213.78 3232.16,402.25 3252.11,213.78 "/>
  <path id="8" class="fil3" d="M3574.55 213.78l17.96 418.57 -111.22 0 2.06 -75.14 -39.25 0 -13.87 75.14 -112.63 0 99.53 -418.57 157.42 0zm-86.27 269.34c-0.19,-47.44 0.56,-106.18 2.16,-176.3 -19.28,80.44 -32.28,139.17 -39.12,176.3l36.96 0z"/>
 </g>
</svg>
