<?xml version="1.0" encoding="UTF-8"?>
<!DOCTYPE svg PUBLIC "-//W3C//DTD SVG 1.1//EN" "http://www.w3.org/Graphics/SVG/1.1/DTD/svg11.dtd">
<!-- Creator: CorelDRAW 2018 (64 Bit Versão de avaliação) -->
<svg xmlns="http://www.w3.org/2000/svg" xml:space="preserve" width="38.0998mm" height="8.4666mm" version="1.1" style="shape-rendering:geometricPrecision; text-rendering:geometricPrecision; image-rendering:optimizeQuality; fill-rule:evenodd; clip-rule:evenodd"
viewBox="0 0 3809.98 846.66"
 xmlns:xlink="http://www.w3.org/1999/xlink">
 <defs>
  <style type="text/css">
   <![CDATA[
    .fil0 {fill:#103099}
    .fil2 {fill:#335CE6}
    .fil1 {fill:#E6E6E6}
    .fil3 {fill:white;fill-rule:nonzero}
   ]]>
  </style>
 </defs>
 <g id="Camada_x0020_1">
  <metadata id="CorelCorpID_0Corel-Layer"/>
  <rect class="fil0" x="-0.01" width="3809.99" height="846.66"/>
  <g id="_1867644654576">
   <g>
    <path class="fil1" d="M950.27 440.97l0 190.5c0,57.12 36.87,130.53 91.72,130.53 58.04,0 99.45,-37.84 107.67,-86.64 3.43,-20.35 -4.92,-34.39 -5.37,-54.48 14.62,7.02 28.39,7.06 45.86,7.06 42.15,0 91.73,-51.09 91.73,-91.72 0,-36.89 -5.38,-59.31 -41.52,-81.95 -19.06,-11.94 -51.89,-23.88 -81.96,-23.88l-197.55 0c-8.13,0 -10.58,2.45 -10.58,10.58z"/>
    <path class="fil1" d="M738.6 172.86c0,38.23 1.51,25.18 3.53,49.39 -16.45,0 -20.28,-3.53 -45.86,-3.53 -41.29,0 -86.47,44.75 -91.73,92.69l0 18.12c2.5,21.98 14.48,43.54 40.15,60.71 18.72,12.51 50.55,26.03 79.8,26.03l211.66 0 0 -201.08c0,-57.82 -36.53,-130.53 -91.72,-130.53 -62.39,0 -105.83,47.18 -105.83,88.2z"/>
   </g>
   <g>
    <path class="fil2" d="M604.54 522.11c0,57.34 37.76,99.43 86.64,107.67 20.35,3.43 34.39,-4.92 54.48,-5.37 -22.6,47.09 5.08,137.59 102.3,137.59 53.23,0 88.19,-68.16 88.19,-123.48l0 -208.13 -201.08 0c-57.12,0 -130.53,36.87 -130.53,91.72z"/>
    <path class="fil2" d="M950.09 204.79l0 211.66 201.08 0c57.82,0 130.53,-36.53 130.53,-91.72 0,-32.12 -4.38,-47.6 -25.65,-73.12 -39.81,-47.77 -82.2,-29.92 -115.47,-29.18 7.02,-14.62 7.06,-28.39 7.06,-45.86 0,-28.73 -15.88,-45.9 -30.83,-60.89 -17.21,-17.25 -37.61,-27.89 -58.22,-30.84l-23.16 0c-22.18,3.27 -43.25,16.17 -59.31,40.15 -12.15,18.15 -26.03,51.64 -26.03,79.8z"/>
   </g>
   <polygon class="fil3" points="1569.78,213.78 1753.93,213.78 1745.08,297.39 1669.93,297.39 1661.47,377.29 1728.15,377.29 1719.75,456.67 1653.07,456.67 1634.47,632.35 1525.47,632.35 "/>
   <polygon id="1" class="fil3" points="1780.39,213.78 1961.89,213.78 1953.04,297.39 1880.54,297.39 1872.08,377.29 1939.82,377.29 1931.42,456.67 1863.68,456.67 1853.93,548.74 1933.84,548.74 1924.99,632.35 1736.08,632.35 "/>
   <path id="2" class="fil3" d="M2000.26 213.78l81.4 0c52.48,0 87.77,2.38 105.77,7.23 18.01,4.85 31.28,12.79 39.72,23.81 8.45,11.03 13.24,23.28 14.19,36.78 0.95,13.58 -0.63,40.13 -4.83,79.81l-15.52 146.59c-3.97,37.57 -8.39,62.7 -13.26,75.31 -4.87,12.7 -12.1,22.67 -21.58,29.81 -9.58,7.15 -20.95,12.09 -34.23,15 -13.17,2.82 -32.81,4.23 -58.83,4.23l-137.14 0 44.31 -418.57zm101.44 71.43l-29.19 275.7c15.44,0 25.3,-3.17 29.49,-9.43 4.29,-6.35 7.86,-23.46 10.82,-51.42l17.24 -162.81c2.01,-18.96 2.67,-31.13 2.1,-36.51 -0.67,-5.38 -2.9,-9.26 -6.96,-11.73 -3.96,-2.56 -11.77,-3.8 -23.5,-3.8z"/>
   <polygon id="3" class="fil3" points="2292.71,213.78 2474.21,213.78 2465.36,297.39 2392.86,297.39 2384.4,377.29 2452.14,377.29 2443.74,456.67 2376,456.67 2366.25,548.74 2446.16,548.74 2437.31,632.35 2248.4,632.35 "/>
   <path id="4" class="fil3" d="M2512.58 213.78l76.99 0c51.33,0 85.87,1.94 103.62,5.91 17.74,3.96 31.49,14.11 41.23,30.42 9.74,16.23 12.73,42.25 8.96,77.88 -3.45,32.54 -9.82,54.42 -19.13,65.62 -9.2,11.2 -25.87,17.9 -49.93,20.1 20.96,5.38 34.75,12.53 41.21,21.52 6.46,8.91 10.18,17.2 11.14,24.7 1.06,7.5 -0.24,28.13 -3.81,61.91l-11.7 110.51 -101.08 0 14.74 -139.26c2.37,-22.4 2.08,-36.25 -0.88,-41.63 -2.87,-5.38 -11.76,-8.02 -26.67,-8.02l-20 188.91 -109 0 44.31 -418.57zm101.44 71.43l-9.86 93.14c12.18,0 20.82,-1.68 26.02,-5.03 5.2,-3.35 8.83,-14.29 10.78,-32.72l2.44 -23.02c1.41,-13.32 -0.05,-22.05 -4.28,-26.19 -4.24,-4.15 -12.66,-6.18 -25.1,-6.18z"/>
   <path id="5" class="fil3" d="M2985.3 213.78l17.96 418.57 -111.22 0 2.06 -75.14 -39.25 0 -13.87 75.14 -112.63 0 99.53 -418.57 157.42 0zm-86.27 269.34c-0.19,-47.44 0.56,-106.18 2.16,-176.3 -19.28,80.44 -32.28,139.17 -39.12,176.3l36.96 0z"/>
   <polygon id="6" class="fil3" points="3175.27,213.78 3139.81,548.74 3205.43,548.74 3196.58,632.35 3021.96,632.35 3066.27,213.78 "/>
  </g>
 </g>
</svg>
