<?xml version="1.0" encoding="UTF-8"?>
<!DOCTYPE svg PUBLIC "-//W3C//DTD SVG 1.1//EN" "http://www.w3.org/Graphics/SVG/1.1/DTD/svg11.dtd">
<!-- Creator: CorelDRAW 2018 (64 Bit Versão de avaliação) -->
<svg xmlns="http://www.w3.org/2000/svg" xml:space="preserve" width="38.0998mm" height="8.4666mm" version="1.1" style="shape-rendering:geometricPrecision; text-rendering:geometricPrecision; image-rendering:optimizeQuality; fill-rule:evenodd; clip-rule:evenodd"
viewBox="0 0 3809.98 846.66"
 xmlns:xlink="http://www.w3.org/1999/xlink">
 <defs>
  <style type="text/css">
   <![CDATA[
    .fil1 {fill:#E6E6E6}
    .fil0 {fill:#F78100}
    .fil2 {fill:#FAAB57}
    .fil3 {fill:white;fill-rule:nonzero}
   ]]>
  </style>
 </defs>
 <g id="Camada_x0020_1">
  <metadata id="CorelCorpID_0Corel-Layer"/>
  <rect class="fil0" x="-0.01" width="3809.99" height="846.66"/>
  <g id="_1868077987200">
   <g>
    <path class="fil1" d="M614 440.97l0 190.5c0,57.12 36.87,130.53 91.72,130.53 58.04,0 99.45,-37.84 107.67,-86.64 3.43,-20.35 -4.92,-34.39 -5.37,-54.48 14.62,7.02 28.39,7.06 45.86,7.06 42.15,0 91.73,-51.09 91.73,-91.72 0,-36.89 -5.38,-59.31 -41.52,-81.95 -19.06,-11.94 -51.89,-23.88 -81.96,-23.88l-197.55 0c-8.13,0 -10.58,2.45 -10.58,10.58z"/>
    <path class="fil1" d="M402.33 172.86c0,38.23 1.51,25.18 3.53,49.39 -16.45,0 -20.28,-3.53 -45.86,-3.53 -41.29,0 -86.47,44.75 -91.73,92.69l0 18.12c2.5,21.98 14.48,43.54 40.15,60.71 18.72,12.51 50.55,26.03 79.8,26.03l211.66 0 0 -201.08c0,-57.82 -36.53,-130.53 -91.72,-130.53 -62.39,0 -105.83,47.18 -105.83,88.2z"/>
   </g>
   <g>
    <path class="fil2" d="M268.27 522.11c0,57.34 37.76,99.43 86.64,107.67 20.35,3.43 34.39,-4.92 54.48,-5.37 -22.6,47.09 5.08,137.59 102.3,137.59 53.23,0 88.19,-68.16 88.19,-123.48l0 -208.13 -201.08 0c-57.12,0 -130.53,36.87 -130.53,91.72z"/>
    <path class="fil2" d="M613.82 204.79l0 211.66 201.08 0c57.82,0 130.53,-36.53 130.53,-91.72 0,-32.12 -4.38,-47.6 -25.65,-73.12 -39.81,-47.77 -82.2,-29.92 -115.47,-29.18 7.02,-14.62 7.06,-28.39 7.06,-45.86 0,-28.73 -15.88,-45.9 -30.83,-60.89 -17.21,-17.25 -37.61,-27.89 -58.22,-30.84l-23.16 0c-22.18,3.27 -43.25,16.17 -59.31,40.15 -12.15,18.15 -26.03,51.64 -26.03,79.8z"/>
   </g>
   <polygon class="fil3" points="1342.51,213.78 1307.05,548.74 1372.67,548.74 1363.82,632.35 1189.2,632.35 1233.51,213.78 "/>
   <path id="1" class="fil3" d="M1648.96 459.14c-4.46,42.06 -8.57,71.79 -12.45,89.25 -3.8,17.55 -11.67,33.51 -23.6,47.98 -11.94,14.46 -27.23,25.57 -45.78,33.33 -18.55,7.77 -39.59,11.65 -63.14,11.65 -22.4,0 -42.03,-3.71 -59.07,-11.03 -17.04,-7.32 -30.26,-18.25 -39.47,-32.9 -9.3,-14.64 -14.05,-30.6 -14.34,-47.8 -0.2,-17.28 1.93,-47.45 6.49,-90.48l7.58 -71.62c4.45,-42.07 8.57,-71.79 12.44,-89.25 3.8,-17.55 11.66,-33.52 23.6,-47.98 11.94,-14.46 27.23,-25.58 45.78,-33.34 18.54,-7.76 39.59,-11.64 63.14,-11.64 22.4,0 42.03,3.7 59.08,11.02 17.03,7.32 30.25,18.26 39.47,32.9 9.29,14.64 14.04,30.6 14.34,47.8 0.2,17.29 -1.94,47.45 -6.49,90.49l-7.58 71.62zm-94.46 -137.5c2.05,-19.4 2.31,-31.84 0.77,-37.31 -1.54,-5.38 -5.58,-8.11 -12.1,-8.11 -5.56,0 -10.02,2.2 -13.49,6.61 -3.37,4.32 -6.24,17.29 -8.52,38.81l-20.68 195.35c-2.56,24.25 -3.18,39.25 -1.84,44.89 1.33,5.73 5.53,8.56 12.58,8.56 7.24,0 12.26,-3.27 14.98,-9.79 2.72,-6.53 5.34,-22.14 7.95,-46.75l20.35 -192.26z"/>
   <polygon id="2" class="fil3" points="1934.92,213.78 1926.07,297.39 1862.04,297.39 1826.58,632.35 1717.57,632.35 1753.03,297.39 1688.48,297.39 1697.33,213.78 "/>
   <path id="3" class="fil3" d="M2182.01 459.14c-4.46,42.06 -8.57,71.79 -12.45,89.25 -3.8,17.55 -11.67,33.51 -23.6,47.98 -11.94,14.46 -27.23,25.57 -45.78,33.33 -18.55,7.77 -39.59,11.65 -63.14,11.65 -22.4,0 -42.03,-3.71 -59.07,-11.03 -17.04,-7.32 -30.26,-18.25 -39.47,-32.9 -9.3,-14.64 -14.05,-30.6 -14.34,-47.8 -0.2,-17.28 1.93,-47.45 6.49,-90.48l7.58 -71.62c4.45,-42.07 8.57,-71.79 12.44,-89.25 3.8,-17.55 11.66,-33.52 23.6,-47.98 11.94,-14.46 27.23,-25.58 45.78,-33.34 18.54,-7.76 39.59,-11.64 63.14,-11.64 22.4,0 42.03,3.7 59.08,11.02 17.03,7.32 30.25,18.26 39.47,32.9 9.29,14.64 14.04,30.6 14.34,47.8 0.2,17.29 -1.94,47.45 -6.49,90.49l-7.58 71.62zm-94.46 -137.5c2.05,-19.4 2.31,-31.84 0.77,-37.31 -1.54,-5.38 -5.58,-8.11 -12.1,-8.11 -5.56,0 -10.02,2.2 -13.49,6.61 -3.37,4.32 -6.24,17.29 -8.52,38.81l-20.68 195.35c-2.56,24.25 -3.18,39.25 -1.84,44.89 1.33,5.73 5.53,8.56 12.58,8.56 7.24,0 12.26,-3.27 14.98,-9.79 2.72,-6.53 5.34,-22.14 7.95,-46.75l20.35 -192.26z"/>
   <path id="4" class="fil3" d="M2584.39 213.78l-44.31 418.57 -95.25 0 29.64 -282.58 -67.74 282.58 -66.68 0 -10.71 -276.23 -29.5 276.23 -95.25 0 44.31 -418.57 140.67 0c1.29,25.31 2.45,55.12 3.52,89.16l4.19 106.28 45.47 -195.44 141.64 0z"/>
   <path id="5" class="fil3" d="M2815.99 213.78l17.96 418.57 -111.22 0 2.06 -75.14 -39.25 0 -13.87 75.14 -112.63 0 99.53 -418.57 157.42 0zm-86.27 269.34c-0.19,-47.44 0.56,-106.18 2.16,-176.3 -19.28,80.44 -32.28,139.17 -39.12,176.3l36.96 0z"/>
   <polygon id="6" class="fil3" points="3139.85,213.78 3095.54,632.35 3000.28,632.35 2963.81,442.03 2943.66,632.35 2852.65,632.35 2896.96,213.78 2987.97,213.78 3028.88,402.25 3048.83,213.78 "/>
   <polygon id="7" class="fil3" points="3292.51,213.78 3248.2,632.35 3139.2,632.35 3183.51,213.78 "/>
   <path id="8" class="fil3" d="M3523.76 213.78l17.96 418.57 -111.22 0 2.06 -75.14 -39.25 0 -13.87 75.14 -112.63 0 99.53 -418.57 157.42 0zm-86.27 269.34c-0.19,-47.44 0.56,-106.18 2.16,-176.3 -19.28,80.44 -32.28,139.17 -39.12,176.3l36.96 0z"/>
  </g>
 </g>
</svg>
