<?xml version="1.0" encoding="UTF-8"?>
<!DOCTYPE svg PUBLIC "-//W3C//DTD SVG 1.1//EN" "http://www.w3.org/Graphics/SVG/1.1/DTD/svg11.dtd">
<!-- Creator: CorelDRAW 2018 (64 Bit Versão de avaliação) -->
<svg xmlns="http://www.w3.org/2000/svg" xml:space="preserve" width="38.0998mm" height="8.4666mm" version="1.1" style="shape-rendering:geometricPrecision; text-rendering:geometricPrecision; image-rendering:optimizeQuality; fill-rule:evenodd; clip-rule:evenodd"
viewBox="0 0 3809.98 846.66"
 xmlns:xlink="http://www.w3.org/1999/xlink">
 <defs>
  <style type="text/css">
   <![CDATA[
    .fil0 {fill:#0087B9}
    .fil2 {fill:#35B7E6}
    .fil1 {fill:#E6E6E6}
    .fil3 {fill:white;fill-rule:nonzero}
   ]]>
  </style>
 </defs>
 <g id="Camada_x0020_1">
  <metadata id="CorelCorpID_0Corel-Layer"/>
  <rect class="fil0" x="-0.01" width="3809.99" height="846.66"/>
  <g id="_1866762539120">
   <path class="fil1" d="M900.4 440.97l0 190.5c0,57.12 36.87,130.53 91.72,130.53 58.04,0 99.45,-37.84 107.67,-86.64 3.43,-20.35 -4.92,-34.39 -5.37,-54.48 14.62,7.02 28.39,7.06 45.86,7.06 42.15,0 91.73,-51.09 91.73,-91.72 0,-36.89 -5.38,-59.31 -41.52,-81.95 -19.06,-11.94 -51.89,-23.88 -81.96,-23.88l-197.55 0c-8.13,0 -10.58,2.45 -10.58,10.58z"/>
   <path class="fil1" d="M688.73 172.86c0,38.23 1.51,25.18 3.53,49.39 -16.45,0 -20.28,-3.53 -45.86,-3.53 -41.29,0 -86.47,44.75 -91.73,92.69l0 18.12c2.5,21.98 14.48,43.54 40.15,60.71 18.72,12.51 50.55,26.03 79.8,26.03l211.66 0 0 -201.08c0,-57.82 -36.53,-130.53 -91.72,-130.53 -62.39,0 -105.83,47.18 -105.83,88.2z"/>
  </g>
  <g id="_1866762535696">
   <path class="fil2" d="M554.67 522.11c0,57.34 37.76,99.43 86.64,107.67 20.35,3.43 34.39,-4.92 54.48,-5.37 -22.6,47.09 5.08,137.59 102.3,137.59 53.23,0 88.19,-68.16 88.19,-123.48l0 -208.13 -201.08 0c-57.12,0 -130.53,36.87 -130.53,91.72z"/>
   <path class="fil2" d="M900.22 204.79l0 211.66 201.08 0c57.82,0 130.53,-36.53 130.53,-91.72 0,-32.12 -4.38,-47.6 -25.65,-73.12 -39.81,-47.77 -82.2,-29.92 -115.47,-29.18 7.02,-14.62 7.06,-28.39 7.06,-45.86 0,-28.73 -15.88,-45.9 -30.83,-60.89 -17.21,-17.25 -37.61,-27.89 -58.22,-30.84l-23.16 0c-22.18,3.27 -43.25,16.17 -59.31,40.15 -12.15,18.15 -26.03,51.64 -26.03,79.8z"/>
  </g>
  <polygon class="fil3" points="1628.91,213.78 1593.45,548.74 1659.07,548.74 1650.22,632.35 1475.6,632.35 1519.91,213.78 "/>
  <path id="1" class="fil3" d="M1935.36 459.14c-4.46,42.06 -8.57,71.79 -12.45,89.25 -3.8,17.55 -11.67,33.51 -23.6,47.98 -11.94,14.46 -27.23,25.57 -45.78,33.33 -18.55,7.77 -39.59,11.65 -63.14,11.65 -22.4,0 -42.03,-3.71 -59.07,-11.03 -17.04,-7.32 -30.26,-18.25 -39.47,-32.9 -9.3,-14.64 -14.05,-30.6 -14.34,-47.8 -0.2,-17.28 1.93,-47.45 6.49,-90.48l7.58 -71.62c4.45,-42.07 8.57,-71.79 12.44,-89.25 3.8,-17.55 11.66,-33.52 23.6,-47.98 11.94,-14.46 27.23,-25.58 45.78,-33.34 18.54,-7.76 39.59,-11.64 63.14,-11.64 22.4,0 42.03,3.7 59.08,11.02 17.03,7.32 30.25,18.26 39.47,32.9 9.29,14.64 14.04,30.6 14.34,47.8 0.2,17.29 -1.94,47.45 -6.49,90.49l-7.58 71.62zm-94.46 -137.5c2.05,-19.4 2.31,-31.84 0.77,-37.31 -1.54,-5.38 -5.58,-8.11 -12.1,-8.11 -5.56,0 -10.02,2.2 -13.49,6.61 -3.37,4.32 -6.24,17.29 -8.52,38.81l-20.68 195.35c-2.56,24.25 -3.18,39.25 -1.84,44.89 1.33,5.73 5.53,8.56 12.58,8.56 7.24,0 12.26,-3.27 14.98,-9.79 2.72,-6.53 5.34,-22.14 7.95,-46.75l20.35 -192.26z"/>
  <polygon id="2" class="fil3" points="2221.32,213.78 2212.47,297.39 2148.44,297.39 2112.98,632.35 2003.97,632.35 2039.43,297.39 1974.88,297.39 1983.73,213.78 "/>
  <path id="3" class="fil3" d="M2468.41 459.14c-4.46,42.06 -8.57,71.79 -12.45,89.25 -3.8,17.55 -11.67,33.51 -23.6,47.98 -11.94,14.46 -27.23,25.57 -45.78,33.33 -18.55,7.77 -39.59,11.65 -63.14,11.65 -22.4,0 -42.03,-3.71 -59.07,-11.03 -17.04,-7.32 -30.26,-18.25 -39.47,-32.9 -9.3,-14.64 -14.05,-30.6 -14.34,-47.8 -0.2,-17.28 1.93,-47.45 6.49,-90.48l7.58 -71.62c4.45,-42.07 8.57,-71.79 12.44,-89.25 3.8,-17.55 11.66,-33.52 23.6,-47.98 11.94,-14.46 27.23,-25.58 45.78,-33.34 18.54,-7.76 39.59,-11.64 63.14,-11.64 22.4,0 42.03,3.7 59.08,11.02 17.03,7.32 30.25,18.26 39.47,32.9 9.29,14.64 14.04,30.6 14.34,47.8 0.2,17.29 -1.94,47.45 -6.49,90.49l-7.58 71.62zm-94.46 -137.5c2.05,-19.4 2.31,-31.84 0.77,-37.31 -1.54,-5.38 -5.58,-8.11 -12.1,-8.11 -5.56,0 -10.02,2.2 -13.49,6.61 -3.37,4.32 -6.24,17.29 -8.52,38.81l-20.68 195.35c-2.56,24.25 -3.18,39.25 -1.84,44.89 1.33,5.73 5.53,8.56 12.58,8.56 7.24,0 12.26,-3.27 14.98,-9.79 2.72,-6.53 5.34,-22.14 7.95,-46.75l20.35 -192.26z"/>
  <path id="4" class="fil3" d="M2768.18 368.29l-109.01 0 4.03 -38.01c2.54,-23.99 3.15,-38.98 1.76,-44.98 -1.39,-6.08 -5.92,-9.08 -13.51,-9.08 -6.52,0 -11.29,2.56 -14.22,7.76 -2.93,5.12 -5.48,18.43 -7.74,39.78l-21.25 200.73c-1.98,18.69 -2.15,31.13 -0.39,37.04 1.75,5.91 6.1,8.91 13.16,8.91 7.76,0 13.32,-3.35 16.86,-10.06 3.44,-6.7 6.24,-19.84 8.3,-39.33l5.25 -49.57 -21.17 0 6.72 -63.5 127.01 0 -23.75 224.37 -68.53 0 -6.88 -29.99c-8.79,12.97 -19.15,22.67 -31.04,29.2 -11.98,6.52 -25.65,9.79 -40.91,9.79 -18.26,0 -34.81,-4.41 -49.83,-13.32 -14.94,-8.91 -25.86,-19.85 -32.67,-32.99 -6.91,-13.05 -10.57,-26.81 -11.16,-41.18 -0.51,-14.38 0.72,-35.99 3.76,-64.74l13.17 -124.35c4.22,-39.96 9.42,-68.97 15.65,-87.05 6.24,-18.17 20.35,-34.75 42.31,-49.83 21.97,-15.08 49.13,-22.58 81.5,-22.58 31.84,0 57.52,6.53 77.12,19.67 19.6,13.14 31.72,28.66 36.16,46.65 4.44,18.08 4.86,44.19 1.22,78.58l-1.92 18.08z"/>
  <path id="5" class="fil3" d="M3049.26 459.14c-4.46,42.06 -8.57,71.79 -12.45,89.25 -3.8,17.55 -11.67,33.51 -23.6,47.98 -11.94,14.46 -27.23,25.57 -45.78,33.33 -18.55,7.77 -39.59,11.65 -63.14,11.65 -22.4,0 -42.03,-3.71 -59.07,-11.03 -17.04,-7.32 -30.26,-18.25 -39.47,-32.9 -9.3,-14.64 -14.05,-30.6 -14.34,-47.8 -0.2,-17.28 1.93,-47.45 6.49,-90.48l7.58 -71.62c4.45,-42.07 8.57,-71.79 12.44,-89.25 3.8,-17.55 11.66,-33.52 23.6,-47.98 11.94,-14.46 27.23,-25.58 45.78,-33.34 18.54,-7.76 39.59,-11.64 63.14,-11.64 22.4,0 42.03,3.7 59.08,11.02 17.03,7.32 30.25,18.26 39.47,32.9 9.29,14.64 14.04,30.6 14.34,47.8 0.2,17.29 -1.94,47.45 -6.49,90.49l-7.58 71.62zm-94.46 -137.5c2.05,-19.4 2.31,-31.84 0.77,-37.31 -1.54,-5.38 -5.58,-8.11 -12.1,-8.11 -5.56,0 -10.02,2.2 -13.49,6.61 -3.37,4.32 -6.24,17.29 -8.52,38.81l-20.68 195.35c-2.56,24.25 -3.18,39.25 -1.84,44.89 1.33,5.73 5.53,8.56 12.58,8.56 7.24,0 12.26,-3.27 14.98,-9.79 2.72,-6.53 5.34,-22.14 7.95,-46.75l20.35 -192.26z"/>
  <polygon id="6" class="fil3" points="3225.15,213.78 3189.69,548.74 3255.31,548.74 3246.46,632.35 3071.84,632.35 3116.15,213.78 "/>
 </g>
</svg>
