<?xml version="1.0" encoding="UTF-8"?>
<!DOCTYPE svg PUBLIC "-//W3C//DTD SVG 1.1//EN" "http://www.w3.org/Graphics/SVG/1.1/DTD/svg11.dtd">
<!-- Creator: CorelDRAW 2018 (64 Bit Versão de avaliação) -->
<svg xmlns="http://www.w3.org/2000/svg" xml:space="preserve" width="38.0998mm" height="8.4666mm" version="1.1" style="shape-rendering:geometricPrecision; text-rendering:geometricPrecision; image-rendering:optimizeQuality; fill-rule:evenodd; clip-rule:evenodd"
viewBox="0 0 3809.98 846.66"
 xmlns:xlink="http://www.w3.org/1999/xlink">
 <defs>
  <style type="text/css">
   <![CDATA[
    .fil2 {fill:#004423}
    .fil0 {fill:#339E4A}
    .fil1 {fill:#E6E6E6}
    .fil3 {fill:white;fill-rule:nonzero}
   ]]>
  </style>
 </defs>
 <g id="Camada_x0020_1">
  <metadata id="CorelCorpID_0Corel-Layer"/>
  <rect class="fil0" x="-0.01" width="3809.99" height="846.66"/>
  <path class="fil1" d="M478.88 440.97l0 190.5c0,57.12 36.87,130.53 91.72,130.53 58.04,0 99.45,-37.84 107.67,-86.64 3.43,-20.35 -4.92,-34.39 -5.37,-54.48 14.62,7.02 28.39,7.06 45.86,7.06 42.15,0 91.73,-51.09 91.73,-91.72 0,-36.89 -5.38,-59.31 -41.52,-81.95 -19.06,-11.94 -51.89,-23.88 -81.96,-23.88l-197.55 0c-8.13,0 -10.58,2.45 -10.58,10.58z"/>
  <path class="fil2" d="M133.15 522.11c0,57.34 37.76,99.43 86.64,107.67 20.35,3.43 34.39,-4.92 54.48,-5.37 -22.6,47.09 5.08,137.59 102.3,137.59 53.23,0 88.19,-68.16 88.19,-123.48l0 -208.13 -201.08 0c-57.12,0 -130.53,36.87 -130.53,91.72z"/>
  <path class="fil1" d="M267.21 172.86c0,38.23 1.51,25.18 3.53,49.39 -16.45,0 -20.28,-3.53 -45.86,-3.53 -41.29,0 -86.47,44.75 -91.73,92.69l0 18.12c2.5,21.98 14.48,43.54 40.15,60.71 18.72,12.51 50.55,26.03 79.8,26.03l211.66 0 0 -201.08c0,-57.82 -36.53,-130.53 -91.72,-130.53 -62.39,0 -105.83,47.18 -105.83,88.2z"/>
  <path class="fil2" d="M478.7 204.79l0 211.66 201.08 0c57.82,0 130.53,-36.53 130.53,-91.72 0,-32.12 -4.38,-47.6 -25.65,-73.12 -39.81,-47.77 -82.2,-29.92 -115.47,-29.18 7.02,-14.62 7.06,-28.39 7.06,-45.86 0,-28.73 -15.88,-45.9 -30.83,-60.89 -17.21,-17.25 -37.61,-27.89 -58.22,-30.84l-23.16 0c-22.18,3.27 -43.25,16.17 -59.31,40.15 -12.15,18.15 -26.03,51.64 -26.03,79.8z"/>
  <path class="fil3" d="M1433.88 213.78l-44.31 418.57 -95.25 0 29.64 -282.58 -67.74 282.58 -66.68 0 -10.71 -276.23 -29.5 276.23 -95.25 0 44.31 -418.57 140.67 0c1.29,25.31 2.45,55.12 3.52,89.16l4.19 106.28 45.47 -195.44 141.64 0z"/>
  <polygon id="1" class="fil3" points="1477.72,213.78 1659.22,213.78 1650.37,297.39 1577.87,297.39 1569.41,377.29 1637.15,377.29 1628.75,456.67 1561.01,456.67 1551.26,548.74 1631.17,548.74 1622.32,632.35 1433.41,632.35 "/>
  <path id="2" class="fil3" d="M1930.47 368.29l-109.01 0 4.03 -38.01c2.54,-23.99 3.15,-38.98 1.76,-44.98 -1.39,-6.08 -5.92,-9.08 -13.51,-9.08 -6.52,0 -11.29,2.56 -14.22,7.76 -2.93,5.12 -5.48,18.43 -7.74,39.78l-21.25 200.73c-1.98,18.69 -2.15,31.13 -0.39,37.04 1.75,5.91 6.1,8.91 13.16,8.91 7.76,0 13.32,-3.35 16.86,-10.06 3.44,-6.7 6.24,-19.84 8.3,-39.33l5.25 -49.57 -21.17 0 6.72 -63.5 127.01 0 -23.75 224.37 -68.53 0 -6.88 -29.99c-8.79,12.97 -19.15,22.67 -31.04,29.2 -11.98,6.52 -25.65,9.79 -40.91,9.79 -18.26,0 -34.81,-4.41 -49.83,-13.32 -14.94,-8.91 -25.86,-19.85 -32.67,-32.99 -6.91,-13.05 -10.57,-26.81 -11.16,-41.18 -0.51,-14.38 0.72,-35.99 3.76,-64.74l13.17 -124.35c4.22,-39.96 9.42,-68.97 15.65,-87.05 6.24,-18.17 20.35,-34.75 42.31,-49.83 21.97,-15.08 49.13,-22.58 81.5,-22.58 31.84,0 57.52,6.53 77.12,19.67 19.6,13.14 31.72,28.66 36.16,46.65 4.44,18.08 4.86,44.19 1.22,78.58l-1.92 18.08z"/>
  <path id="3" class="fil3" d="M2177.1 213.78l17.96 418.57 -111.22 0 2.06 -75.14 -39.25 0 -13.87 75.14 -112.63 0 99.53 -418.57 157.42 0zm-86.27 269.34c-0.19,-47.44 0.56,-106.18 2.16,-176.3 -19.28,80.44 -32.28,139.17 -39.12,176.3l36.96 0z"/>
  <polygon id="4" class="fil3" points="2360.07,424.92 2352.45,496.88 2215.93,496.88 2223.55,424.92 "/>
  <path id="5" class="fil3" d="M2630.64 340.78l-101.07 0 3.28 -30.96c1.53,-14.46 1.19,-23.72 -0.95,-27.69 -2.13,-3.97 -6.16,-5.91 -12.16,-5.91 -6.52,0 -11.74,2.64 -15.66,8.02 -3.91,5.3 -6.44,13.32 -7.59,24.17 -1.47,13.93 -0.65,24.43 2.4,31.49 2.97,6.96 12.29,15.52 28.07,25.57 45.2,28.84 73.11,52.57 83.69,71 10.65,18.43 13.77,48.15 9.44,89.08 -3.16,29.81 -9.01,51.77 -17.48,65.97 -8.46,14.11 -23.12,25.93 -44.15,35.45 -20.95,9.61 -44.65,14.38 -71.19,14.38 -29.11,0 -53.3,-5.56 -72.78,-16.58 -19.38,-11.03 -31.29,-25.05 -35.93,-42.07 -4.54,-17.11 -5.14,-41.37 -1.83,-72.68l2.9 -27.43 101.07 0 -5.38 50.89c-1.66,15.7 -1.32,25.76 1.03,30.25 2.34,4.5 7.13,6.71 14.36,6.71 7.23,0 12.91,-2.83 17.05,-8.56 4.13,-5.64 6.78,-14.11 7.96,-25.22 2.61,-24.61 0.96,-40.75 -4.94,-48.24 -6.17,-7.59 -21.76,-20.29 -46.86,-38.1 -25.09,-17.91 -41.52,-30.96 -49.48,-39.07 -7.88,-8.12 -14.01,-19.32 -18.24,-33.61 -4.22,-14.28 -5.19,-32.54 -2.84,-54.77 3.39,-32.01 9.93,-55.47 19.7,-70.29 9.77,-14.81 24.13,-26.37 43.28,-34.75 19.15,-8.38 41.54,-12.52 67.38,-12.52 28.22,0 51.73,4.59 70.7,13.67 18.87,9.17 30.8,20.64 35.76,34.57 4.97,13.85 5.74,37.4 2.22,70.65l-1.76 16.58z"/>
  <polygon id="6" class="fil3" points="2687.58,213.78 2869.08,213.78 2860.23,297.39 2787.73,297.39 2779.27,377.29 2847.01,377.29 2838.61,456.67 2770.87,456.67 2761.12,548.74 2841.03,548.74 2832.18,632.35 2643.27,632.35 "/>
  <polygon id="7" class="fil3" points="3150.34,213.78 3106.03,632.35 3010.77,632.35 2974.3,442.03 2954.15,632.35 2863.14,632.35 2907.45,213.78 2998.46,213.78 3039.37,402.25 3059.32,213.78 "/>
  <path id="8" class="fil3" d="M3381.76 213.78l17.96 418.57 -111.22 0 2.06 -75.14 -39.25 0 -13.87 75.14 -112.63 0 99.53 -418.57 157.42 0zm-86.27 269.34c-0.19,-47.44 0.56,-106.18 2.16,-176.3 -19.28,80.44 -32.28,139.17 -39.12,176.3l36.96 0z"/>
 </g>
</svg>
