<?xml version="1.0" encoding="UTF-8"?>
<!DOCTYPE svg PUBLIC "-//W3C//DTD SVG 1.1//EN" "http://www.w3.org/Graphics/SVG/1.1/DTD/svg11.dtd">
<!-- Creator: CorelDRAW 2018 (64 Bit Versão de avaliação) -->
<svg xmlns="http://www.w3.org/2000/svg" xml:space="preserve" width="38.0998mm" height="8.4666mm" version="1.1" style="shape-rendering:geometricPrecision; text-rendering:geometricPrecision; image-rendering:optimizeQuality; fill-rule:evenodd; clip-rule:evenodd"
viewBox="0 0 3809.98 846.66"
 xmlns:xlink="http://www.w3.org/1999/xlink">
 <defs>
  <style type="text/css">
   <![CDATA[
    .fil0 {fill:#260085}
    .fil2 {fill:#582EC2}
    .fil1 {fill:#E6E6E6}
    .fil3 {fill:white;fill-rule:nonzero}
   ]]>
  </style>
 </defs>
 <g id="Camada_x0020_1">
  <metadata id="CorelCorpID_0Corel-Layer"/>
  <rect class="fil0" x="-0.01" width="3809.99" height="846.66"/>
  <g id="_1866650515168">
   <g>
    <path class="fil1" d="M1156.48 440.97l0 190.5c0,57.12 36.87,130.53 91.72,130.53 58.04,0 99.45,-37.84 107.67,-86.64 3.43,-20.35 -4.92,-34.39 -5.37,-54.48 14.62,7.02 28.39,7.06 45.86,7.06 42.15,0 91.73,-51.09 91.73,-91.72 0,-36.89 -5.38,-59.31 -41.52,-81.95 -19.06,-11.94 -51.89,-23.88 -81.96,-23.88l-197.55 0c-8.13,0 -10.58,2.45 -10.58,10.58z"/>
    <path class="fil1" d="M944.81 172.86c0,38.23 1.51,25.18 3.53,49.39 -16.45,0 -20.28,-3.53 -45.86,-3.53 -41.29,0 -86.47,44.75 -91.73,92.69l0 18.12c2.5,21.98 14.48,43.54 40.15,60.71 18.72,12.51 50.55,26.03 79.8,26.03l211.66 0 0 -201.08c0,-57.82 -36.53,-130.53 -91.72,-130.53 -62.39,0 -105.83,47.18 -105.83,88.2z"/>
   </g>
   <g>
    <path class="fil2" d="M810.75 522.11c0,57.34 37.76,99.43 86.64,107.67 20.35,3.43 34.39,-4.92 54.48,-5.37 -22.6,47.09 5.08,137.59 102.3,137.59 53.23,0 88.19,-68.16 88.19,-123.48l0 -208.13 -201.08 0c-57.12,0 -130.53,36.87 -130.53,91.72z"/>
    <path class="fil2" d="M1156.3 204.79l0 211.66 201.08 0c57.82,0 130.53,-36.53 130.53,-91.72 0,-32.12 -4.38,-47.6 -25.65,-73.12 -39.81,-47.77 -82.2,-29.92 -115.47,-29.18 7.02,-14.62 7.06,-28.39 7.06,-45.86 0,-28.73 -15.88,-45.9 -30.83,-60.89 -17.21,-17.25 -37.61,-27.89 -58.22,-30.84l-23.16 0c-22.18,3.27 -43.25,16.17 -59.31,40.15 -12.15,18.15 -26.03,51.64 -26.03,79.8z"/>
   </g>
   <path class="fil3" d="M1979.86 632.35l-5.38 50.8 -81.76 0c-19.67,0 -33.43,-1.59 -41.13,-4.67 -7.69,-3.09 -12.68,-7.68 -14.86,-13.67 -2.2,-6 -2.46,-16.85 -0.81,-32.46 -24.61,-0.71 -45.1,-7.14 -61.61,-19.4 -16.54,-12.17 -26.61,-27.78 -30.27,-46.57 -3.74,-18.87 -3.57,-47.1 0.41,-84.67l13.69 -129.38c3.02,-28.49 6.98,-50.09 11.91,-65 4.93,-14.9 13.38,-28.93 25.27,-42.07 11.9,-13.23 26.44,-23.19 43.64,-29.9 17.21,-6.7 35.9,-10.05 56.01,-10.05 24.25,0 45.52,4.14 63.6,12.44 18.17,8.29 31.26,18.78 39.27,31.48 7.99,12.79 12.76,26.02 14.13,39.69 1.38,13.76 0.63,34.13 -2.23,61.12l-14.39 135.99c-3.94,37.22 -8.48,62.53 -13.49,75.76 -5.03,13.32 -13.02,23.82 -24.08,31.67 -11.15,7.85 -25.46,13.84 -42.92,17.99 -0.44,9.17 0.89,14.99 3.99,17.37 3.09,2.38 10.91,3.53 23.44,3.53l37.57 0zm-76.12 -310.71c2.05,-19.4 2.31,-31.84 0.77,-37.31 -1.54,-5.38 -5.58,-8.11 -12.1,-8.11 -5.56,0 -10.02,2.2 -13.49,6.61 -3.37,4.32 -6.24,17.29 -8.52,38.81l-20.68 195.35c-2.56,24.25 -3.18,39.25 -1.84,44.89 1.33,5.73 5.53,8.56 12.58,8.56 7.24,0 12.26,-3.27 14.98,-9.79 2.72,-6.53 5.34,-22.14 7.95,-46.75l20.35 -192.26z"/>
   <path id="1" class="fil3" d="M2312.21 213.78l-29.62 279.84c-3.36,31.75 -6.79,54.06 -10.17,66.85 -3.48,12.88 -10.96,26.11 -22.53,39.6 -11.59,13.58 -26.07,23.81 -43.39,30.78 -17.41,6.97 -37.36,10.5 -59.94,10.5 -24.96,0 -46.57,-4.15 -64.74,-12.44 -18.26,-8.29 -31.41,-19.05 -39.45,-32.28 -8.11,-13.32 -12.18,-27.34 -12.38,-42.07 -0.13,-14.73 2.28,-45.77 7.28,-92.96l26.23 -247.82 109.01 0 -33.24 313.97c-1.93,18.26 -2.2,29.99 -0.79,35.01 1.4,5.12 5.09,7.68 11,7.68 6.7,0 11.41,-2.83 13.94,-8.38 2.54,-5.65 4.91,-18.88 7.11,-39.69l32.67 -308.59 109.01 0z"/>
   <polygon id="2" class="fil3" points="2463.46,213.78 2419.15,632.35 2310.15,632.35 2354.46,213.78 "/>
   <polygon id="3" class="fil3" points="2749.84,213.78 2705.53,632.35 2610.27,632.35 2573.8,442.03 2553.65,632.35 2462.64,632.35 2506.95,213.78 2597.96,213.78 2638.87,402.25 2658.82,213.78 "/>
   <path id="4" class="fil3" d="M2981.26 213.78l17.96 418.57 -111.22 0 2.06 -75.14 -39.25 0 -13.87 75.14 -112.63 0 99.53 -418.57 157.42 0zm-86.27 269.34c-0.19,-47.44 0.56,-106.18 2.16,-176.3 -19.28,80.44 -32.28,139.17 -39.12,176.3l36.96 0z"/>
  </g>
 </g>
</svg>
