<?xml version="1.0" encoding="UTF-8"?>
<!DOCTYPE svg PUBLIC "-//W3C//DTD SVG 1.1//EN" "http://www.w3.org/Graphics/SVG/1.1/DTD/svg11.dtd">
<!-- Creator: CorelDRAW 2018 (64 Bit Versão de avaliação) -->
<svg xmlns="http://www.w3.org/2000/svg" xml:space="preserve" width="38.0998mm" height="8.4666mm" version="1.1" style="shape-rendering:geometricPrecision; text-rendering:geometricPrecision; image-rendering:optimizeQuality; fill-rule:evenodd; clip-rule:evenodd"
viewBox="0 0 3809.98 846.66"
 xmlns:xlink="http://www.w3.org/1999/xlink">
 <defs>
  <style type="text/css">
   <![CDATA[
    .fil0 {fill:#DDA90F}
    .fil1 {fill:#E6E6E6}
    .fil2 {fill:#F2CE61}
    .fil3 {fill:white;fill-rule:nonzero}
   ]]>
  </style>
 </defs>
 <g id="Camada_x0020_1">
  <metadata id="CorelCorpID_0Corel-Layer"/>
  <rect class="fil0" x="-0.01" width="3809.99" height="846.66"/>
  <g id="_1902627123936">
   <path class="fil1" d="M614 440.97l0 190.5c0,57.12 36.87,130.53 91.72,130.53 58.04,0 99.45,-37.84 107.67,-86.64 3.43,-20.35 -4.92,-34.39 -5.37,-54.48 14.62,7.02 28.39,7.06 45.86,7.06 42.15,0 91.73,-51.09 91.73,-91.72 0,-36.89 -5.38,-59.31 -41.52,-81.95 -19.06,-11.94 -51.89,-23.88 -81.96,-23.88l-197.55 0c-8.13,0 -10.58,2.45 -10.58,10.58z"/>
   <path class="fil1" d="M402.33 172.86c0,38.23 1.51,25.18 3.53,49.39 -16.45,0 -20.28,-3.53 -45.86,-3.53 -41.29,0 -86.47,44.75 -91.73,92.69l0 18.12c2.5,21.98 14.48,43.54 40.15,60.71 18.72,12.51 50.55,26.03 79.8,26.03l211.66 0 0 -201.08c0,-57.82 -36.53,-130.53 -91.72,-130.53 -62.39,0 -105.83,47.18 -105.83,88.2z"/>
  </g>
  <g id="_1902627120704">
   <path class="fil2" d="M268.27 522.11c0,57.34 37.76,99.43 86.64,107.67 20.35,3.43 34.39,-4.92 54.48,-5.37 -22.6,47.09 5.08,137.59 102.3,137.59 53.23,0 88.19,-68.16 88.19,-123.48l0 -208.13 -201.08 0c-57.12,0 -130.53,36.87 -130.53,91.72z"/>
   <path class="fil2" d="M613.82 204.79l0 211.66 201.08 0c57.82,0 130.53,-36.53 130.53,-91.72 0,-32.12 -4.38,-47.6 -25.65,-73.12 -39.81,-47.77 -82.2,-29.92 -115.47,-29.18 7.02,-14.62 7.06,-28.39 7.06,-45.86 0,-28.73 -15.88,-45.9 -30.83,-60.89 -17.21,-17.25 -37.61,-27.89 -58.22,-30.84l-23.16 0c-22.18,3.27 -43.25,16.17 -59.31,40.15 -12.15,18.15 -26.03,51.64 -26.03,79.8z"/>
  </g>
  <polygon class="fil3" points="1452.58,213.78 1443.73,297.39 1379.7,297.39 1344.24,632.35 1235.23,632.35 1270.69,297.39 1206.14,297.39 1214.99,213.78 "/>
  <polygon id="1" class="fil3" points="1586.46,213.78 1542.15,632.35 1433.15,632.35 1477.46,213.78 "/>
  <path id="2" class="fil3" d="M1965.44 213.78l-44.31 418.57 -95.25 0 29.64 -282.58 -67.74 282.58 -66.68 0 -10.71 -276.23 -29.5 276.23 -95.25 0 44.31 -418.57 140.67 0c1.29,25.31 2.45,55.12 3.52,89.16l4.19 106.28 45.47 -195.44 141.64 0z"/>
  <polygon id="3" class="fil3" points="2009.28,213.78 2190.78,213.78 2181.93,297.39 2109.43,297.39 2100.97,377.29 2168.71,377.29 2160.31,456.67 2092.57,456.67 2082.82,548.74 2162.73,548.74 2153.88,632.35 1964.97,632.35 "/>
  <path id="4" class="fil3" d="M2564.64 213.78l-44.31 418.57 -95.25 0 29.64 -282.58 -67.74 282.58 -66.68 0 -10.71 -276.23 -29.5 276.23 -95.25 0 44.31 -418.57 140.67 0c1.29,25.31 2.45,55.12 3.52,89.16l4.19 106.28 45.47 -195.44 141.64 0z"/>
  <path id="5" class="fil3" d="M2796.24 213.78l17.96 418.57 -111.22 0 2.06 -75.14 -39.25 0 -13.87 75.14 -112.63 0 99.53 -418.57 157.42 0zm-86.27 269.34c-0.19,-47.44 0.56,-106.18 2.16,-176.3 -19.28,80.44 -32.28,139.17 -39.12,176.3l36.96 0z"/>
  <polygon id="6" class="fil3" points="3120.1,213.78 3075.79,632.35 2980.53,632.35 2944.06,442.03 2923.91,632.35 2832.9,632.35 2877.21,213.78 2968.22,213.78 3009.13,402.25 3029.08,213.78 "/>
  <polygon id="7" class="fil3" points="3272.76,213.78 3228.45,632.35 3119.45,632.35 3163.76,213.78 "/>
  <path id="8" class="fil3" d="M3504.01 213.78l17.96 418.57 -111.22 0 2.06 -75.14 -39.25 0 -13.87 75.14 -112.63 0 99.53 -418.57 157.42 0zm-86.27 269.34c-0.19,-47.44 0.56,-106.18 2.16,-176.3 -19.28,80.44 -32.28,139.17 -39.12,176.3l36.96 0z"/>
 </g>
</svg>
