<?xml version="1.0" encoding="UTF-8"?>
<!DOCTYPE svg PUBLIC "-//W3C//DTD SVG 1.1//EN" "http://www.w3.org/Graphics/SVG/1.1/DTD/svg11.dtd">
<!-- Creator: CorelDRAW 2018 (64 Bit Versão de avaliação) -->
<svg xmlns="http://www.w3.org/2000/svg" xml:space="preserve" width="91.44mm" height="21.8438mm" version="1.1" style="shape-rendering:geometricPrecision; text-rendering:geometricPrecision; image-rendering:optimizeQuality; fill-rule:evenodd; clip-rule:evenodd"
viewBox="0 0 9144 2184.38"
 xmlns:xlink="http://www.w3.org/1999/xlink">
 <defs>
  <style type="text/css">
   <![CDATA[
    .fil1 {fill:black}
    .fil0 {fill:#10236E}
    .fil3 {fill:#F0C34E}
    .fil2 {fill:white}
   ]]>
  </style>
 </defs>
 <g id="Camada_x0020_1">
  <metadata id="CorelCorpID_0Corel-Layer"/>
  <rect class="fil0" y="-0.01" width="9144" height="2184.4"/>
  <g id="_2093553166672">
   <circle class="fil1" cx="1769.07" cy="1105.77" r="821.27"/>
   <circle class="fil2" cx="1744.13" cy="1092.19" r="821.27"/>
   <polygon class="fil3" points="2249.91,1092.19 1851.97,1321.94 1454.04,1551.69 1454.04,1092.19 1454.04,632.69 1851.97,862.44 "/>
  </g>
  <g id="_2093553162384">
   <polygon class="fil1" points="3570.13,716.28 4171.99,824.41 4203.84,527.21 3579.14,407.17 "/>
   <path class="fil1" d="M5813.08 714.84c150.58,0 272.64,186.59 272.64,416.76 0,230.17 -122.06,416.76 -272.64,416.76 -150.57,0 -272.64,-186.59 -272.64,-416.76 0,-230.17 122.07,-416.76 272.64,-416.76zm0 162.59c91.83,0 166.28,113.8 166.28,254.17 0,140.38 -74.45,254.18 -166.28,254.18 -91.83,0 -166.28,-113.8 -166.28,-254.18 0,-140.37 74.45,-254.17 166.28,-254.17z"/>
   <path class="fil1" d="M5256.07 725.48l-152.03 0c8.84,114.75 -13.9,366.13 -7.79,526.65 7.79,204.97 -15.21,307.15 345.88,274.59l0 -178.16c-186.96,65.02 -198.07,-67.51 -199.28,-236.69 -1.07,-149.28 -3.22,-330.09 13.22,-386.39z"/>
   <path class="fil1" d="M7061.8 730.53l-2.67 164.1c-0.62,37.88 -206.04,-79.25 -248.21,158.78l253.24 0.68 -4.96 173.54 -248.33 5.56c42.73,213.98 254.76,89.34 251.95,158.95l-5.42 133.56c-0.74,18.39 -420.13,65.09 -421.51,-394.1 -0.98,-328.38 286.29,-471.04 425.91,-401.07z"/>
   <path class="fil1" d="M7553.48 730.53l-2.68 164.1c-0.67,41.62 -248.65,-103.98 -255.59,240.14 -7,347.07 262.45,178.97 259.28,257.37l-5.41 133.56c-0.75,18.39 -420.14,65.09 -421.51,-394.1 -0.99,-328.38 286.29,-471.04 425.91,-401.07z"/>
   <polygon class="fil1" points="6236.18,1530.67 6418.54,1520.95 6429.36,1025.65 6232.33,1025.59 "/>
   <polygon class="fil1" points="6550.17,895.73 6570.7,717.68 6133.92,714.28 6126.89,896.74 "/>
   <polygon class="fil1" points="7891.24,1032.61 7972.78,1349.29 7804.38,1349.43 7891.23,1032.61 7737.17,1034 7627.01,1530.67 8153.95,1520.95 7971.82,719.16 7812.4,719.06 "/>
   <polygon class="fil1" points="4683.56,662.93 4417.36,1435.23 4394.98,1233.89 4265.4,1199.67 4323.06,1818.96 4417.35,1836.73 4819.91,665.84 "/>
   <polygon class="fil1" points="4249.23,824.8 4260.41,1053.36 4362.07,1053.36 4332.45,834.39 "/>
   <polygon class="fil1" points="3579.35,1691.13 3725.58,1691.13 3834.98,917.29 3698.99,893.44 "/>
  </g>
  <g id="_2093553155536">
   <polygon class="fil3" points="3537.06,686.51 4138.92,794.64 4170.77,497.44 3546.07,377.4 "/>
   <path class="fil3" d="M5780.01 685.07c150.58,0 272.64,186.59 272.64,416.76 0,230.17 -122.06,416.76 -272.64,416.76 -150.57,0 -272.64,-186.59 -272.64,-416.76 0,-230.17 122.07,-416.76 272.64,-416.76zm0 162.59c91.83,0 166.28,113.8 166.28,254.17 0,140.38 -74.45,254.18 -166.28,254.18 -91.83,0 -166.28,-113.8 -166.28,-254.18 0,-140.37 74.45,-254.17 166.28,-254.17z"/>
   <path class="fil3" d="M5223 695.71l-152.03 0c8.84,114.75 -13.9,366.13 -7.79,526.65 7.79,204.97 -15.21,307.15 345.88,274.59l0 -178.16c-186.96,65.02 -198.07,-67.51 -199.28,-236.69 -1.07,-149.28 -3.22,-330.09 13.22,-386.39z"/>
   <path class="fil3" d="M7028.73 700.76l-2.67 164.1c-0.62,37.88 -206.04,-79.25 -248.21,158.78l253.24 0.68 -4.96 173.54 -248.33 5.56c42.73,213.98 254.76,89.34 251.95,158.95l-5.42 133.56c-0.74,18.39 -420.13,65.09 -421.51,-394.1 -0.98,-328.38 286.29,-471.04 425.91,-401.07z"/>
   <path class="fil3" d="M7520.41 700.76l-2.68 164.1c-0.67,41.62 -248.65,-103.98 -255.59,240.14 -7,347.07 262.45,178.97 259.28,257.37l-5.41 133.56c-0.75,18.39 -420.14,65.09 -421.51,-394.1 -0.99,-328.38 286.29,-471.04 425.91,-401.07z"/>
   <polygon class="fil3" points="6203.11,1500.9 6385.47,1491.18 6396.29,995.88 6199.26,995.82 "/>
   <polygon class="fil3" points="6517.1,865.96 6537.63,687.91 6100.85,684.51 6093.82,866.97 "/>
   <polygon class="fil3" points="7858.17,1002.84 7939.71,1319.52 7771.31,1319.66 7858.16,1002.84 7704.1,1004.23 7593.94,1500.9 8120.88,1491.18 7938.75,689.39 7779.33,689.29 "/>
   <polygon class="fil3" points="4650.49,633.16 4384.29,1405.46 4361.91,1204.12 4232.33,1169.9 4289.99,1789.19 4384.28,1806.96 4786.84,636.07 "/>
   <polygon class="fil3" points="4216.16,795.03 4227.34,1023.59 4329,1023.59 4299.38,804.62 "/>
   <polygon class="fil3" points="3546.28,1661.36 3692.51,1661.36 3801.91,887.52 3665.92,863.67 "/>
  </g>
 </g>
</svg>
